<svg xmlns="http://www.w3.org/2000/svg" width="150" height="30" viewBox="0 0 150 30"><path fill="#282828" d="M83.973 13.845L75.62 5.49A1.6 1.6 0 0 0 74.447 5c-.445 0-.83.163-1.155.488l-.963.963a1.523 1.523 0 0 0-.487 1.156c0 .462.162.847.487 1.155l3.762 3.775h-9.037c-.445 0-.807.16-1.085.48a1.71 1.71 0 0 0-.417 1.162v1.644c0 .454.14.844.417 1.163.278.32.64.48 1.085.48h9.037l-3.762 3.762a1.594 1.594 0 0 0-.487 1.168c0 .455.162.844.487 1.168l.963.964c.334.318.72.476 1.155.476a1.64 1.64 0 0 0 1.168-.475l8.356-8.356a1.6 1.6 0 0 0 .475-1.17c0-.47-.158-.855-.474-1.155zM36.027 16.154l8.356 8.355c.325.326.715.49 1.17.49.444 0 .83-.164 1.154-.49l.963-.962c.325-.308.487-.69.487-1.154s-.162-.848-.487-1.154l-3.762-3.774h9.037c.445 0 .807-.16 1.085-.48.278-.32.417-.708.417-1.16v-1.644c0-.453-.14-.84-.417-1.16-.278-.322-.64-.482-1.085-.482h-9.037l3.762-3.762c.325-.325.487-.715.487-1.168 0-.454-.162-.843-.487-1.168l-.963-.963c-.334-.322-.72-.48-1.155-.48a1.64 1.64 0 0 0-1.168.475l-8.356 8.356a1.59 1.59 0 0 0-.475 1.17c0 .47.158.855.474 1.154zM115.582 15.984a4.567 4.567 0 0 0-2.577-1.636c.33-.5.495-1.055.495-1.666 0-.854-.302-1.582-.906-2.187a2.98 2.98 0 0 0-2.185-.906 2.95 2.95 0 0 0-2.006.75 6.063 6.063 0 0 0-2.275-2.79 6.046 6.046 0 0 0-3.448-1.05c-1.705 0-3.162.603-4.37 1.81-1.208 1.207-1.812 2.664-1.812 4.37 0 .105.007.278.02.52a5.31 5.31 0 0 0-2.268 1.99 5.3 5.3 0 0 0-.846 2.9c0 1.488.528 2.764 1.587 3.82 1.06 1.06 2.333 1.588 3.822 1.588h13.137c1.28 0 2.373-.452 3.275-1.357.906-.905 1.358-1.997 1.358-3.275a4.446 4.446 0 0 0-1.003-2.88zm-6.84.464l-4.237 4.24a.382.382 0 0 1-.278.105.376.376 0 0 1-.274-.106l-4.25-4.25a.375.375 0 0 1-.11-.278.37.37 0 0 1 .115-.272.366.366 0 0 1 .27-.115h2.706v-4.25a.384.384 0 0 1 .384-.385h2.316a.37.37 0 0 1 .272.113.383.383 0 0 1 .116.273v4.25h2.7c.112 0 .208.037.278.106a.372.372 0 0 1 .107.277c.006.1-.034.195-.115.29z"/><g fill="#282828"><path d="M130.085 14.812c.78-.36 1.526-.54 2.24-.54h9.452v-1.817c0-.697-.25-1.296-.75-1.796s-1.098-.75-1.797-.75h-6.183v-.365c0-.697-.25-1.295-.75-1.794a2.438 2.438 0 0 0-1.792-.75h-3.636c-.698 0-1.297.25-1.797.75s-.75 1.098-.75 1.794v10.91c0 .028.003.075.007.142.004.064.005.11.005.14l.058-.065 3.83-4.498c.46-.547 1.082-1 1.862-1.36z"/><path d="M145.374 15.875c-.2-.1-.43-.148-.688-.148h-12.36c-.5 0-1.046.135-1.632.403-.588.27-1.045.597-1.368.984l-3.818 4.5c-.233.264-.354.515-.354.747 0 .23.103.392.304.49.2.1.43.147.688.147h12.36c.5 0 1.045-.135 1.632-.402.588-.27 1.045-.6 1.37-.982l3.815-4.5c.234-.268.354-.516.354-.75a.51.51 0 0 0-.303-.488z"/></g><path fill="#282828" d="M25.335 16.44a.56.56 0 0 1-.274.148h-.05a.467.467 0 0 1-.297-.1l-9.72-8.104-9.697 8.106c-.098.072-.223.124-.348.1a.662.662 0 0 1-.3-.148l-.868-1.045a.442.442 0 0 1 .074-.62L13.948 6.37c.597-.497 1.542-.497 2.14 0l3.43 2.86V6.497c0-.25.198-.448.446-.448h2.687c.248 0 .448.2.448.448v5.718l3.083 2.562c.15.148.198.447.025.62l-.87 1.043zm-2.237 6.664a.91.91 0 0 1-.895.896h-5.395v-5.396h-3.605V24H7.81a.908.908 0 0 1-.897-.896v-6.809l8.08-6.663 8.08 6.663v6.809h.025z"/></svg>