<svg xmlns="http://www.w3.org/2000/svg" width="360" height="60" viewBox="0 0 360 60"><path fill="#FFF" d="M90 0C73.433 0 60 13.433 60 30c0 16.568 13.433 30 30 30s30-13.432 30-30c0-16.57-13.433-30-30-30zm14.927 23.266l.022.956c0 9.762-7.432 21.012-21.02 21.012-4.168 0-8.05-1.223-11.32-3.317a14.848 14.848 0 0 0 10.936-3.053 7.397 7.397 0 0 1-6.9-5.132 7.598 7.598 0 0 0 3.34-.13c-3.38-.68-5.927-3.663-5.927-7.24v-.093a7.375 7.375 0 0 0 3.345.926 7.384 7.384 0 0 1-3.285-6.147c0-1.354.362-2.62.998-3.712a20.96 20.96 0 0 0 15.224 7.718 7.32 7.32 0 0 1-.19-1.685 7.386 7.386 0 0 1 7.387-7.382c2.122 0 4.042.896 5.393 2.33 1.68-.333 3.263-.948 4.69-1.79a7.418 7.418 0 0 1-3.247 4.087c1.49-.176 2.92-.58 4.24-1.163a14.964 14.964 0 0 1-3.69 3.814z"/><g fill="#FFF"><path d="M30 0C13.433 0 0 13.433 0 30c0 16.566 13.433 30 30 30s30-13.434 30-30C60 13.43 46.567 0 30 0zm7.756 29.996L32.838 30l-.004 18H26.09V30h-4.502v-6.202l4.5-.004-.007-3.653c0-5.062 1.373-8.14 7.333-8.14h4.966v6.205h-3.106c-2.322 0-2.436.866-2.436 2.483l-.007 3.105h5.582l-.656 6.203zM145.605 47.94c0 4.396-2.72 7.872-10.416 8.152a30.128 30.128 0 0 1-10.952-10.715c1.39-3.428 5.725-6.037 10.683-5.98 1.408.015 2.72.238 3.912.626 3.275 2.276 5.918 3.7 6.58 6.295.125.526.193 1.067.193 1.62zM150 0c-8.67 0-16.477 3.68-21.953 9.556a15.386 15.386 0 0 1 7.436-1.912h15.025l-3.357 3.523h-3.943c2.783 1.596 4.263 4.88 4.263 8.498 0 3.322-1.84 5.998-4.44 8.03-2.536 1.98-3.017 2.81-3.017 4.497 0 1.438 3.03 3.58 4.424 4.625 4.854 3.64 5.834 5.93 5.834 10.48 0 4.612-4.038 9.206-10.89 10.768A29.952 29.952 0 0 0 150 60c16.568 0 30-13.432 30-30 0-16.57-13.432-30-30-30zm15 22.5V30h-3.75v-7.5h-7.5v-3.75h7.5v-7.5H165v7.5h7.5v3.75H165zm-23.568-2.608c.698 5.318-1.633 8.74-5.68 8.62-4.05-.122-7.9-3.837-8.6-9.155-.697-5.318 2.018-9.39 6.067-9.27 4.048.123 7.512 4.486 8.212 9.805zm-8.49 17.73c-4.376 0-8.094 1.51-10.714 3.74A29.922 29.922 0 0 1 120 30c0-3.325.542-6.526 1.54-9.517.433 5.828 4.533 10.324 11.308 10.324.5 0 .982-.024 1.458-.06-.466.894-.798 1.887-.798 2.93 0 1.757.966 2.76 2.16 3.92-.902 0-1.773.024-2.727.024zM270 60c-2.76 0-5.42-.36-7.98-1.08-2.56-.72-4.95-1.73-7.17-3.03s-4.24-2.857-6.06-4.68a29.96 29.96 0 0 1-4.68-6.06 30.25 30.25 0 0 1-3.03-7.172A29.265 29.265 0 0 1 240 30c0-2.76.36-5.42 1.08-7.98a30.36 30.36 0 0 1 3.03-7.17c1.3-2.22 2.858-4.24 4.68-6.06a29.89 29.89 0 0 1 6.06-4.68 30.38 30.38 0 0 1 7.17-3.03C264.58.36 267.24 0 270 0c4.12 0 8.01.79 11.67 2.37s6.84 3.72 9.54 6.42c2.7 2.7 4.84 5.88 6.42 9.54S300 25.88 300 30c0 2.76-.36 5.42-1.08 7.98a30.516 30.516 0 0 1-3.03 7.17 29.89 29.89 0 0 1-4.68 6.062 29.84 29.84 0 0 1-6.06 4.68 30.267 30.267 0 0 1-7.172 3.03A29.308 29.308 0 0 1 270 60zm14.46-42.36h-28.44c-.28 0-.52.09-.72.27-.2.18-.3.43-.3.75v3.18c0 .16.06.24.18.24l14.94 8.52.12.06c.078 0 .14-.02.18-.06l14.46-8.52c.08-.04.14-.06.18-.06.04 0 .102-.02.182-.06.16 0 .24-.08.24-.24v-3.06c0-.32-.103-.57-.302-.75-.2-.18-.44-.27-.72-.27zm-20.4 12.78c.04-.04.06-.1.06-.18 0-.12-.038-.18-.118-.18l-8.58-4.92c-.12-.04-.22-.04-.3 0-.08 0-.12.06-.12.18v12.9c0 .12.06.2.18.24h.12c.08 0 .12-.02.12-.062l8.64-7.978zm10.44.96c-.04-.12-.14-.14-.3-.062l-3.302 1.92c-.398.24-.818.24-1.26 0l-2.88-1.618c-.12-.08-.22-.08-.3 0l-10.98 10.2c-.04.04-.06.12-.06.24 0 .04.04.1.12.18.238.08.398.12.478.12h28.142c.08 0 .16-.04.24-.12 0-.16-.022-.26-.062-.3L274.5 31.38zm10.8-6.48h-.24l-8.16 4.86c-.08 0-.12.06-.12.18-.038.04-.02.1.062.18l8.16 8.82c.08.08.142.118.18.118h.12c.12-.12.182-.2.182-.238V25.14c-.004-.08-.064-.16-.185-.24z"/><path d="M210 0c-16.568 0-30 13.432-30 30 0 16.568 13.432 30 30 30s30-13.432 30-30c0-16.568-13.432-30-30-30zm-11.25 45a3.75 3.75 0 1 1 0-7.5 3.75 3.75 0 0 1 0 7.5zm10.312 0c0-7.754-6.31-14.062-14.062-14.062v-5.625c10.855 0 19.688 8.832 19.688 19.688h-5.626zm11.25 0c0-6.76-2.633-13.117-7.414-17.898S201.76 19.688 195 19.688v-5.625c8.264 0 16.033 3.218 21.877 9.062 5.842 5.843 9.06 13.612 9.06 21.876h-5.625zM321.84 21.78c.76-.76 1.61-1.32 2.55-1.68.94-.36 1.91-.54 2.91-.54s1.97.18 2.91.54c.94.36 1.79.92 2.55 1.68a7.62 7.62 0 0 1 1.71 2.55c.38.94.57 1.9.57 2.88s-.19 1.94-.57 2.88c-.38.94-.948 1.79-1.71 2.55a7.6 7.6 0 0 1-2.55 1.71c-.94.38-1.91.57-2.91.57s-1.97-.19-2.91-.57c-.938-.38-1.79-.95-2.55-1.71-.76-.76-1.32-1.61-1.68-2.55-.36-.94-.54-1.9-.54-2.88s.18-1.94.54-2.88c.36-.94.92-1.79 1.68-2.55zm-19.47-3.45c1.58-3.66 3.72-6.84 6.42-9.54s5.88-4.84 9.54-6.42S325.88 0 330 0c2.76 0 5.42.36 7.98 1.08 2.56.72 4.948 1.73 7.17 3.03 2.22 1.3 4.24 2.86 6.06 4.68a29.982 29.982 0 0 1 7.71 13.23c.72 2.56 1.08 5.22 1.08 7.98s-.36 5.42-1.08 7.98a30.453 30.453 0 0 1-3.03 7.17 30.008 30.008 0 0 1-10.74 10.74 30.453 30.453 0 0 1-7.17 3.03c-2.56.72-5.22 1.08-7.98 1.08s-5.42-.36-7.98-1.08a30.433 30.433 0 0 1-7.17-3.03 29.93 29.93 0 0 1-6.06-4.68 29.93 29.93 0 0 1-4.682-6.06 30.453 30.453 0 0 1-3.03-7.17C300.36 35.42 300 32.76 300 30c0-4.12.79-8.01 2.37-11.67zm12.12 14.1c.66 1.7 1.67 3.23 3.028 4.59 1.08 1.08 2.29 1.95 3.632 2.61 1.34.66 2.72 1.09 4.14 1.29 1.42.2 2.84.18 4.26-.06s2.79-.7 4.11-1.38l6.24 6.24c.68.72 1.528 1.08 2.55 1.08 1.02 0 1.87-.36 2.55-1.08.72-.68 1.08-1.522 1.08-2.522 0-.998-.36-1.86-1.08-2.58l-6-6c.84-1.318 1.43-2.74 1.77-4.26.342-1.52.432-3.05.27-4.59-.158-1.54-.568-3.02-1.228-4.44-.66-1.42-1.57-2.71-2.73-3.87-1.358-1.36-2.89-2.37-4.59-3.03-1.7-.66-3.43-.99-5.188-.99-1.76 0-3.49.33-5.19.99-1.7.66-3.228 1.67-4.59 3.03-1.36 1.36-2.37 2.89-3.03 4.59a14.123 14.123 0 0 0-.005 10.38z"/></g></svg>